<?xml version="1.0" encoding="UTF-8" standalone="no"?>
<!DOCTYPE svg PUBLIC "-//W3C//DTD SVG 1.1//EN" "http://www.w3.org/Graphics/SVG/1.1/DTD/svg11.dtd">
<svg width="100%" height="100%" viewBox="0 0 1440 1440" version="1.1" xmlns="http://www.w3.org/2000/svg" xmlns:xlink="http://www.w3.org/1999/xlink" xml:space="preserve" xmlns:serif="http://www.serif.com/" style="fill-rule:evenodd;clip-rule:evenodd;stroke-miterlimit:10;">
    <g id="d20-7136921.ai" transform="matrix(3.00702,0,0,3.00339,720,720)">
        <g transform="matrix(1,0,0,1,-207.5,-237.5)">
            <clipPath id="_clip1">
                <rect x="0" y="0" width="415" height="475"/>
            </clipPath>
            <g clip-path="url(#_clip1)">
                <g transform="matrix(1,0,0,1,-112.145,-2.5)">
                    <g id="Layer-4" serif:id="Layer 4">
                        <g>
                            <g transform="matrix(1.21808,0,0,1.21808,521.491,359.524)">
                                <path d="M0,-196.25L-162.621,-290.682C-164.231,-291.617 -166.218,-291.622 -167.833,-290.695L-330.923,-197.077C-332.538,-196.15 -333.536,-194.432 -333.541,-192.57L-334.011,-4.52C-334.015,-2.658 -333.026,-0.935 -331.416,0L-168.795,94.432C-167.185,95.367 -165.198,95.372 -163.583,94.445L-0.493,0.827C1.122,-0.1 2.12,-1.818 2.125,-3.68L2.595,-191.73C2.599,-193.592 1.61,-195.315 0,-196.25Z" style="fill:rgb(138,0,0);fill-rule:nonzero;stroke:black;stroke-width:3.15px;"/>
                            </g>
                            <g transform="matrix(1.21808,0,0,1.21808,319.645,308.565)">
                                <path d="M0,-188.695L-108.943,0L108.943,0L0,-188.695Z" style="fill-rule:nonzero;"/>
                            </g>
                            <g transform="matrix(1.21808,0,0,1.21808,319.645,315.731)">
                                <path d="M0,122.165L-108.943,0L108.943,0L0,122.165Z" style="fill-rule:nonzero;"/>
                            </g>
                            <g transform="matrix(1.21808,0,0,1.21808,460.164,460.869)">
                                <path d="M0,-116.867L-105.63,0L43.976,-87.951L0,-116.867Z" style="fill-rule:nonzero;"/>
                            </g>
                            <g transform="matrix(1.21808,0,0,1.21808,463.479,168.82)">
                                <path d="M0,116.088L43.45,-30.238L43.45,146.326L0,116.088Z" style="fill-rule:nonzero;"/>
                            </g>
                            <g transform="matrix(1.21808,0,0,1.21808,179.693,460.869)">
                                <path d="M0,-116.867L105.63,0L-43.976,-87.951L0,-116.867Z" style="fill-rule:nonzero;"/>
                            </g>
                            <g transform="matrix(1.21808,0,0,1.21808,324.03,71.8334)">
                                <path d="M0,-3.408L147.232,40.37L-0.887,-43.778L0,-3.408Z" style="fill-rule:nonzero;"/>
                            </g>
                            <g transform="matrix(1.21808,0,0,1.21808,316.028,71.4881)">
                                <path d="M0,-2.807L-149.144,40.654L0.467,-43.461L0,-2.807Z" style="fill-rule:nonzero;"/>
                            </g>
                            <g transform="matrix(1.21808,0,0,1.21808,176.379,168.82)">
                                <path d="M0,116.088L-43.45,-30.238L-43.45,146.326L0,116.088Z" style="fill-rule:nonzero;"/>
                            </g>
                            <g transform="matrix(1.21808,0,0,1.21808,128.954,252.593)">
                                <path d="M0,-101.675L42.239,43.45L151.39,-145.125L0,-101.675Z" style="fill-rule:nonzero;"/>
                            </g>
                            <g transform="matrix(1.21808,0,0,1.21808,509.516,252.593)">
                                <path d="M0,-101.675L-42.239,43.45L-151.39,-145.125L0,-101.675Z" style="fill-rule:nonzero;"/>
                            </g>
                            <g transform="matrix(1.21808,0,0,1.21808,321.977,359.597)">
                                <path d="M0,21.397C-0.979,20.272 -2.364,19.706 -4.147,19.706C-5.95,19.706 -7.334,20.272 -8.293,21.397C-9.24,22.508 -9.686,23.925 -9.638,25.632C-9.587,27.457 -9.077,28.861 -8.116,29.861C-7.166,30.851 -5.845,31.341 -4.146,31.341C-2.466,31.341 -1.145,30.851 -0.175,29.861C0.805,28.861 1.324,27.457 1.376,25.632C1.424,23.925 0.968,22.508 0,21.397M1.142,-3.503C-0.107,-5.185 -1.881,-6.034 -4.166,-6.034C-6.45,-6.034 -8.224,-5.185 -9.473,-3.503C-10.704,-1.847 -11.265,0.443 -11.172,3.327C-11.078,6.239 -10.391,8.398 -9.123,9.847C-7.872,11.276 -6.224,11.983 -4.163,11.983C-2.103,11.983 -0.454,11.276 0.796,9.847C2.064,8.398 2.749,6.239 2.842,3.327C2.935,0.443 2.373,-1.847 1.142,-3.503M10.381,11.097C9.039,13.517 7.22,15.301 4.921,16.482C7.045,18.112 8.365,19.847 8.898,21.682C9.422,23.483 9.626,25.138 9.519,26.655C9.288,29.948 7.944,32.669 5.523,34.864C3.16,37.007 -0.045,38.061 -4.131,38.061C-8.216,38.061 -11.421,37.007 -13.786,34.864C-16.206,32.669 -17.55,29.948 -17.781,26.655C-17.888,25.138 -17.685,23.483 -17.163,21.682C-16.633,19.847 -15.312,18.228 -13.188,16.834C-15.52,15.42 -17.348,13.517 -18.671,11.097C-20.026,8.62 -20.838,5.784 -21.088,2.566C-21.477,-2.447 -20.235,-6.899 -17.277,-10.707C-14.219,-14.645 -9.682,-16.664 -3.746,-16.664C2.19,-16.664 6.593,-14.645 9.39,-10.707C12.096,-6.899 13.215,-2.447 12.825,2.566C12.576,5.784 11.755,8.62 10.381,11.097" style="fill:white;fill-rule:nonzero;"/>
                            </g>
                            <g transform="matrix(1.21808,0,0,1.21808,197.979,150.688)">
                                <path d="M0,36.509C-2.112,33.188 -3.11,28.007 -3.029,21.014C-2.968,15.045 -3.125,11.122 -3.496,9.185C-4.088,6.228 -5.489,4.162 -7.679,2.979C-9.432,2.03 -11.232,1.786 -13.077,2.233C-14.904,2.676 -16.465,3.878 -17.768,5.839C-19.547,8.515 -19.893,10.847 -18.801,12.861C-18.163,14.034 -16.764,15.355 -14.575,16.836L-20.408,25.516C-23.621,23.188 -25.779,20.784 -26.93,18.287C-29.079,13.638 -28.218,8.456 -24.366,2.614C-21.3,-2.034 -17.725,-5.158 -13.59,-6.763C-9.364,-8.402 -5.212,-8.249 -1.11,-6.229C2.121,-4.636 4.346,-2.134 5.516,1.293C6.315,3.582 6.712,6.905 6.697,11.282L6.688,16.551C6.68,19.887 6.742,22.224 6.87,23.544C7,24.871 7.347,26.133 7.915,27.335L22.973,5.546L32.132,10.056L7.766,44.911C4.359,42.521 1.783,39.719 0,36.509" style="fill:white;fill-rule:nonzero;"/>
                            </g>
                            <g transform="matrix(1.21808,0,0,1.21808,420.584,162.195)">
                                <path d="M0,-30.017L5.535,-31.764C7.192,-29.096 8.439,-27.259 9.277,-26.254C10.606,-24.657 12.094,-23.502 13.735,-22.795C14.85,-22.314 16.088,-22.095 17.446,-22.138C18.25,-22.171 18.815,-22.248 19.143,-22.368L23.128,-15.39L-19.925,1.747L-25.642,-8.186L5.988,-19.552L0,-30.017Z" style="fill:white;fill-rule:nonzero;"/>
                            </g>
                            <g transform="matrix(1.21808,0,0,1.21808,439.711,193.96)">
                                <path d="M0,0.485L16.834,-8.614L-6.632,-11.077L0,0.485ZM1.746,18.482L-1.326,13.136L-10.857,18.701L-16.278,9.284L-6.557,4.03L-17.345,-14.752L-9.751,-18.216L23.078,-13.555L28.404,-4.225L5.104,9.381L8.1,14.604L1.746,18.482Z" style="fill:white;fill-rule:nonzero;"/>
                            </g>
                            <g transform="matrix(1.21808,0,0,1.21808,150.898,289.533)">
                                <path d="M0,24.16L-1.889,25.432C-2.555,23.429 -3.057,22.033 -3.389,21.262C-3.92,20.027 -4.496,19.125 -5.113,18.562C-5.534,18.179 -5.991,17.998 -6.48,18.021C-6.769,18.041 -6.97,18.096 -7.084,18.189L-8.87,12.597L6.636,-1.272L8.818,7.235L-2.435,16.085L0,24.16Z" style="fill:white;fill-rule:nonzero;"/>
                            </g>
                            <g transform="matrix(1.21808,0,0,1.21808,149.837,241.496)">
                                <path d="M0,26.513C-1.477,26.509 -3.469,24.872 -5.993,21.601C-8.184,18.77 -9.67,17.031 -10.448,16.382C-11.645,15.409 -12.615,15.462 -13.352,16.523C-13.941,17.373 -14.266,18.586 -14.332,20.153C-14.397,21.695 -14.141,23.386 -13.569,25.228C-12.797,27.717 -11.976,29.014 -11.093,29.148C-10.579,29.224 -9.912,28.83 -9.081,27.952L-6.723,35.837C-7.977,37.025 -9.118,37.46 -10.165,37.17C-12.122,36.63 -13.913,33.776 -15.608,28.469C-16.989,24.15 -17.746,20.086 -17.855,16.26C-17.97,12.286 -17.387,9.196 -16.068,7.047C-15.022,5.343 -13.749,4.878 -12.258,5.694C-11.264,6.224 -9.932,7.577 -8.269,9.749L-6.29,12.327C-5.051,13.94 -4.18,15.014 -3.677,15.549C-3.173,16.084 -2.662,16.427 -2.143,16.578L-8.184,-5.905L-5.092,-10.947L4.082,24.814C2.743,26.145 1.387,26.7 0,26.513" style="fill:white;fill-rule:nonzero;"/>
                            </g>
                            <g transform="matrix(1.21808,0,0,1.21808,222.807,383.685)">
                                <path d="M0,15.242L-3.252,16.186C-4.834,14.718 -6.018,13.686 -6.782,13.112C-8.013,12.186 -9.293,11.496 -10.617,11.05C-11.533,10.742 -12.498,10.582 -13.512,10.573C-14.118,10.573 -14.535,10.604 -14.763,10.668L-19.456,6.241L6.826,-0.944L11.419,4.554L-5.771,9.392L0,15.242Z" style="fill:white;fill-rule:nonzero;"/>
                            </g>
                            <g transform="matrix(1.21808,0,0,1.21808,206.37,356.989)">
                                <path d="M0,6.138C1.201,5.037 0.909,3.45 -0.912,1.342C-2.78,-0.82 -4.962,-2.045 -7.447,-2.293C-9.961,-2.543 -13.036,-2.244 -16.669,-1.385C-20.509,-0.477 -23.026,0.552 -24.193,1.69C-25.356,2.826 -24.815,4.487 -22.618,6.635C-20.476,8.729 -18.206,9.865 -15.784,10.08C-13.394,10.293 -10.414,9.948 -6.847,9.052C-3.47,8.204 -1.195,7.236 0,6.138M-34.124,-3.491C-33.25,-6.311 -29.997,-8.374 -24.426,-9.627C-18.924,-10.865 -13.78,-10.721 -9.052,-9.243C-4.462,-7.808 -0.143,-4.607 3.835,0.184C7.604,4.723 8.88,8.084 7.822,10.417C6.779,12.717 3.976,14.449 -0.636,15.652C-5.299,16.866 -9.747,17.003 -14.029,16.032C-18.428,15.035 -22.962,12.372 -27.73,7.881C-32.773,3.13 -34.983,-0.719 -34.124,-3.491" style="fill:white;fill-rule:nonzero;"/>
                            </g>
                            <g transform="matrix(1.21808,0,0,1.21808,243.043,78.9133)">
                                <path d="M0,-11.122L3.173,-13.774C4.801,-14.513 5.99,-15.071 6.733,-15.445C7.91,-16.038 9.056,-16.69 10.153,-17.39C10.887,-17.859 11.606,-18.365 12.301,-18.901C12.704,-19.214 12.969,-19.429 13.101,-19.551L17.058,-21.302L-10.632,6.367L-20.07,10.18L6.477,-13.946L0,-11.122Z" style="fill:white;fill-rule:nonzero;"/>
                            </g>
                            <g transform="matrix(1.21808,0,0,1.21808,268.569,52.6481)">
                                <path d="M0,9.769C0.626,10.212 2.037,9.995 4.22,9.091C6.424,8.179 8.348,7.01 9.911,5.642C11.4,4.34 12.327,3.053 12.715,1.82C13.083,0.653 12.82,0.056 11.981,-0.044C11.18,-0.138 9.966,0.171 8.318,0.878C6.682,1.579 5.228,2.411 3.912,3.403C2.545,4.435 1.429,5.601 0.549,6.958C-0.377,8.387 -0.59,9.351 0,9.769M6.903,-1.036C7.41,-0.979 8.327,-1.234 9.648,-1.806C10.991,-2.389 12.107,-3.016 12.972,-3.672C13.813,-4.31 14.307,-4.865 14.467,-5.333C14.632,-5.818 14.427,-6.036 13.872,-6.008C13.333,-5.98 12.494,-5.713 11.347,-5.209C10.218,-4.712 9.262,-4.191 8.458,-3.632C7.635,-3.059 7.046,-2.498 6.692,-1.938C6.351,-1.398 6.413,-1.091 6.903,-1.036M-3.236,6.087C-1.533,4.666 0.294,3.389 2.286,2.214C1.114,2.295 0.581,2.089 0.639,1.617C0.695,1.169 0.933,0.688 1.341,0.173C2.194,-0.901 3.605,-2.072 5.552,-3.358C7.402,-4.579 9.58,-5.737 12.177,-6.886C14.804,-8.048 16.8,-8.733 18.205,-8.939C19.707,-9.159 20.484,-8.927 20.456,-8.184C20.443,-7.827 20.187,-7.321 19.672,-6.655C19.131,-5.954 17.971,-5.027 16.169,-3.874C17.883,-4.222 19.207,-4.246 20.127,-3.914C21.122,-3.555 21.666,-2.835 21.697,-1.692C21.751,0.265 20.141,2.9 16.568,6.227C12.535,9.982 6.957,13.396 0.388,16.033C-5.987,18.593 -9.599,18.928 -10.479,17.286C-11.245,15.863 -10.299,13.641 -8,10.832C-6.645,9.177 -5.057,7.607 -3.236,6.087" style="fill:white;fill-rule:nonzero;"/>
                            </g>
                            <g transform="matrix(1.21808,0,0,1.21808,385.705,72.8783)">
                                <path d="M0,-5.408L2.072,-9.867L-10.173,-10.105L0,-5.408ZM12.472,3.397L7.524,1.153L7.608,7.707L-3.788,2.743L-1.209,-2.805L-20.547,-11.57L-15.99,-13.115L1.957,-11.476L7.395,-8.864L7.483,-1.953L11.746,0.015L12.472,3.397Z" style="fill:white;fill-rule:nonzero;"/>
                            </g>
                            <g transform="matrix(1.21808,0,0,1.21808,491.382,299.246)">
                                <path d="M0,-35.651C-0.971,-35.61 -1.716,-34.831 -2.236,-33.258C-2.772,-31.639 -2.86,-29.811 -2.472,-27.782C-2.07,-25.681 -1.273,-23.758 -0.084,-22.062C1.254,-20.154 2.436,-19.376 3.43,-19.733C4.395,-20.082 5.04,-21.197 5.374,-23.017C5.634,-24.433 5.644,-25.931 5.417,-27.513C5.098,-29.787 4.285,-31.784 2.977,-33.571C1.931,-35 0.947,-35.69 0,-35.651M10.385,-8.301C10.778,-7.742 11.243,-7.483 11.774,-7.522C12.624,-7.647 13.122,-8.887 13.276,-11.157C13.491,-14.342 12.855,-17.543 11.426,-20.828C10.661,-22.573 9.503,-24.626 7.96,-26.986C8.409,-25.245 8.684,-23.513 8.782,-21.783C8.882,-19.988 8.811,-18.115 8.557,-16.146C7.966,-11.579 6.676,-8.521 4.643,-7.31C2.473,-6.018 0.092,-7.175 -2.351,-10.8C-4.737,-14.339 -6.314,-18.925 -7.065,-24.243C-7.753,-29.127 -7.137,-33.718 -5.438,-37.867C-3.842,-41.767 -1.841,-43.044 0.632,-42.098C2.491,-41.38 4.551,-39.489 6.889,-36.367C8.281,-34.51 9.408,-32.885 10.268,-31.491C11.827,-28.968 13.114,-26.367 14.134,-23.655C15.038,-21.239 15.765,-18.624 16.311,-15.768C16.888,-12.75 17.153,-9.556 17.076,-6.127C16.955,-0.682 16.22,3.246 14.816,5.249C13.315,7.393 11.394,7.146 9.144,4.411L10.385,-8.301Z" style="fill:white;fill-rule:nonzero;"/>
                            </g>
                            <g transform="matrix(1.21808,0,0,1.21808,485.424,359.821)">
                                <path d="M0,-7.854L3.007,-5.856C0.959,-4.244 -0.386,-3.119 -1.07,-2.45C-2.139,-1.407 -2.758,-0.463 -2.943,0.382C-3.067,0.946 -2.937,1.467 -2.564,1.946C-2.338,2.222 -2.137,2.4 -1.958,2.481L-6.579,5.774L-39.736,-6.28L-32.979,-13.628L-7.934,-1.674L0,-7.854Z" style="fill:white;fill-rule:nonzero;"/>
                            </g>
                            <g transform="matrix(1.21808,0,0,1.21808,430.103,379.332)">
                                <path d="M0,-5.313C-2.138,-4.913 -3.717,-4.215 -4.696,-3.24C-5.633,-2.307 -5.632,-1.497 -4.735,-0.815C-3.873,-0.16 -2.397,0.276 -0.345,0.504C1.844,0.747 3.75,0.672 5.432,0.291C7.095,-0.087 8.364,-0.645 9.263,-1.397C10.004,-2.017 10.33,-2.627 10.229,-3.232C10.089,-4.168 8.825,-4.868 6.343,-5.32C4.238,-5.704 2.107,-5.707 0,-5.313M14.358,1.817C14.807,1.868 15.422,1.828 16.202,1.697C17.474,1.472 18.55,1.029 19.452,0.36C20.829,-0.662 20.894,-1.563 19.562,-2.359C18.786,-2.815 17.322,-3.304 15.09,-3.838C15.426,-3.219 15.426,-2.588 15.103,-1.942C14.787,-1.312 14.181,-0.646 13.289,0.058C11.429,1.527 9.039,2.602 6.029,3.332C2.964,4.075 -0.213,4.334 -3.626,4.087C-7.265,3.823 -10.18,3.067 -12.302,1.752C-14.615,0.318 -14.701,-1.723 -12.289,-4.397C-9.518,-7.468 -4.664,-9.337 1.79,-9.811C6.543,-10.153 11.373,-9.701 16.048,-8.565C18.564,-7.954 20.418,-7.418 21.684,-6.944C23.818,-6.144 25.175,-5.283 25.837,-4.362C26.369,-3.608 26.448,-2.785 26.103,-1.894C25.77,-1.035 24.912,-0.122 23.545,0.849C21.629,2.211 19.578,3.204 17.327,3.867C15.056,4.536 12.799,4.84 10.493,4.772L14.358,1.817Z" style="fill:white;fill-rule:nonzero;"/>
                            </g>
                        </g>
                    </g>
                </g>
                <g id="Layer-5" serif:id="Layer 5">
                </g>
                <g id="Layer-6" serif:id="Layer 6">
                </g>
            </g>
        </g>
    </g>
    <g id="spoon-794898.svg" transform="matrix(0.84479,-1.8507e-17,1.93328e-17,0.808706,720,611.13)">
        <g transform="matrix(1,0,0,1,-297.638,-420.945)">
            <g transform="matrix(2.6377,0,0,2.6377,53.036,-270.728)">
                <path d="M91.592,125.448C73.546,125.448 65.718,153.35 62.5,171.107C60.712,180.974 63.237,192.149 68.734,200.535C71.687,205.039 76.833,208.742 80.389,212.937C83.945,217.132 87.202,222.099 87.662,225.15C88.332,229.59 87.518,254.115 87.518,256.607C87.518,261.592 84.071,294.004 83.376,304.084C82.682,314.164 79.805,351.561 79.805,351.561C79.805,351.561 74.933,388.11 82.662,395.839C86.871,400.049 96.312,400.049 100.522,395.839C108.251,388.111 103.379,351.561 103.379,351.561C103.379,351.561 100.502,314.164 99.807,304.084C99.113,294.004 95.664,261.593 95.664,256.607C95.664,254.115 94.852,229.59 95.521,225.15C95.981,222.1 99.239,217.132 102.795,212.937C106.351,208.742 111.496,205.039 114.448,200.535C119.945,192.149 122.472,180.974 120.684,171.107C117.466,153.35 109.638,125.448 91.592,125.448L91.592,125.448Z" style="fill:white;"/>
                <path d="M91.592,128.016C87.742,128.016 84.534,129.442 81.572,132.022C78.61,134.602 75.988,138.372 73.78,142.773C69.363,151.573 66.611,162.817 65.025,171.568C63.374,180.683 65.76,191.318 70.882,199.132C73.438,203.031 78.483,206.722 82.347,211.281C84.198,213.464 85.968,215.84 87.375,218.135C88.782,220.431 89.868,222.565 90.2,224.77C90.431,226.3 90.471,228.577 90.489,231.574C90.508,234.572 90.468,238.146 90.408,241.656C90.288,248.675 90.085,255.643 90.085,256.61C90.085,259.695 89.212,268.69 88.263,278.681C87.314,288.671 86.278,299.326 85.938,304.264C85.24,314.394 82.364,351.761 82.364,351.761C82.361,351.808 82.355,351.856 82.349,351.903C82.342,351.95 81.149,360.933 80.902,370.869C80.778,375.837 80.899,381.024 81.497,385.308C82.095,389.592 83.355,392.907 84.477,394.028C85.904,395.454 88.708,396.433 91.593,396.433C94.477,396.433 97.282,395.455 98.708,394.028C99.83,392.906 101.09,389.591 101.688,385.308C102.286,381.024 102.407,375.837 102.283,370.869C102.036,360.933 100.836,351.903 100.836,351.903C100.83,351.856 100.825,351.808 100.821,351.761C100.817,351.713 97.945,314.394 97.247,304.264C96.907,299.327 95.87,288.672 94.921,278.681C93.971,268.69 93.099,259.695 93.099,256.61C93.099,255.643 92.896,248.675 92.777,241.656C92.717,238.146 92.677,234.572 92.696,231.574C92.714,228.577 92.754,226.3 92.985,224.77C93.317,222.565 94.403,220.431 95.81,218.135C97.217,215.84 98.987,213.465 100.838,211.281C104.702,206.722 109.746,203.032 112.302,199.132C117.424,191.318 119.811,180.682 118.16,171.568C116.574,162.817 113.822,151.573 109.405,142.773C107.197,138.372 104.575,134.602 101.613,132.022C98.651,129.442 95.443,128.016 91.593,128.016L91.592,128.016Z" style="fill:white;stroke:rgb(238,238,236);stroke-width:0.08px;stroke-linecap:square;stroke-linejoin:round;stroke-miterlimit:4;"/>
            </g>
        </g>
    </g>
</svg>
