<svg xmlns="http://www.w3.org/2000/svg" xml:space="preserve" style="fill-rule:evenodd;clip-rule:evenodd;stroke-miterlimit:10" viewBox="0 0 1440 1440">
  <g transform="matrix(3.00702 0 0 3.00339 96.043 6.695)">
    <clipPath id="a">
      <path d="M0 0h415v475H0z"/>
    </clipPath>
    <g clip-path="url(#a)">
      <path d="m0-196.25-162.621-94.432a5.212 5.212 0 0 0-5.212-.013l-163.09 93.618a5.213 5.213 0 0 0-2.618 4.507l-.47 188.05A5.214 5.214 0 0 0-331.416 0l162.621 94.432c1.61.935 3.597.94 5.212.013L-.493.827A5.213 5.213 0 0 0 2.125-3.68l.47-188.05A5.214 5.214 0 0 0 0-196.25Z" style="fill:#8a0000;fill-rule:nonzero;stroke:#000;stroke-width:3.15px" transform="translate(409.346 357.024) scale(1.21808)"/>
      <path d="M0-188.695-108.943 0h217.886L0-188.695Z" style="fill-rule:nonzero" transform="translate(207.5 306.065) scale(1.21808)"/>
      <path d="M0 122.165-108.943 0h217.886L0 122.165Z" style="fill-rule:nonzero" transform="translate(207.5 313.231) scale(1.21808)"/>
      <path d="M0-116.867-105.63 0 43.976-87.951 0-116.867Z" style="fill-rule:nonzero" transform="translate(348.019 458.369) scale(1.21808)"/>
      <path d="M0 116.088 43.45-30.238v176.564L0 116.088Z" style="fill-rule:nonzero" transform="translate(351.334 166.32) scale(1.21808)"/>
      <path d="M0-116.867 105.63 0-43.976-87.951 0-116.867Z" style="fill-rule:nonzero" transform="translate(67.548 458.369) scale(1.21808)"/>
      <path d="M0-3.408 147.232 40.37-.887-43.778 0-3.408Z" style="fill-rule:nonzero" transform="translate(211.885 69.333) scale(1.21808)"/>
      <path d="m0-2.807-149.144 43.461L.467-43.461 0-2.807Z" style="fill-rule:nonzero" transform="translate(203.883 68.988) scale(1.21808)"/>
      <path d="M0 116.088-43.45-30.238v176.564L0 116.088Z" style="fill-rule:nonzero" transform="translate(64.234 166.32) scale(1.21808)"/>
      <path d="M0-101.675 42.239 43.45 151.39-145.125 0-101.675Z" style="fill-rule:nonzero" transform="translate(16.809 250.093) scale(1.21808)"/>
      <path d="M0-101.675-42.239 43.45-151.39-145.125 0-101.675Z" style="fill-rule:nonzero" transform="translate(397.371 250.093) scale(1.21808)"/>
      <path d="M0 21.397c-.979-1.125-2.364-1.691-4.147-1.691-1.803 0-3.187.566-4.146 1.691-.947 1.111-1.393 2.528-1.345 4.235.051 1.825.561 3.229 1.522 4.229.95.99 2.271 1.48 3.97 1.48 1.68 0 3.001-.49 3.971-1.48.98-1 1.499-2.404 1.551-4.229.048-1.707-.408-3.124-1.376-4.235m1.142-24.9C-.107-5.185-1.881-6.034-4.166-6.034c-2.284 0-4.058.849-5.307 2.531-1.231 1.656-1.792 3.946-1.699 6.83.094 2.912.781 5.071 2.049 6.52 1.251 1.429 2.899 2.136 4.96 2.136 2.06 0 3.709-.707 4.959-2.136 1.268-1.449 1.953-3.608 2.046-6.52.093-2.884-.469-5.174-1.7-6.83m9.239 14.6c-1.342 2.42-3.161 4.204-5.46 5.385 2.124 1.63 3.444 3.365 3.977 5.2.524 1.801.728 3.456.621 4.973-.231 3.293-1.575 6.014-3.996 8.209-2.363 2.143-5.568 3.197-9.654 3.197-4.085 0-7.29-1.054-9.655-3.197-2.42-2.195-3.764-4.916-3.995-8.209-.107-1.517.096-3.172.618-4.973.53-1.835 1.851-3.454 3.975-4.848a15.003 15.003 0 0 1-5.483-5.737c-1.355-2.477-2.167-5.313-2.417-8.531-.389-5.013.853-9.465 3.811-13.273 3.058-3.938 7.595-5.957 13.531-5.957 5.936 0 10.339 2.019 13.136 5.957 2.706 3.808 3.825 8.26 3.435 13.273-.249 3.218-1.07 6.054-2.444 8.531" style="fill:#fff;fill-rule:nonzero" transform="translate(209.832 357.097) scale(1.21808)"/>
      <path d="M0 36.509c-2.112-3.321-3.11-8.502-3.029-15.495.061-5.969-.096-9.892-.467-11.829-.592-2.957-1.993-5.023-4.183-6.206-1.753-.949-3.553-1.193-5.398-.746-1.827.443-3.388 1.645-4.691 3.606-1.779 2.676-2.125 5.008-1.033 7.022.638 1.173 2.037 2.494 4.226 3.975l-5.833 8.68c-3.213-2.328-5.371-4.732-6.522-7.229-2.149-4.649-1.288-9.831 2.564-15.673 3.066-4.648 6.641-7.772 10.776-9.377 4.226-1.639 8.378-1.486 12.48.534 3.231 1.593 5.456 4.095 6.626 7.522.799 2.289 1.196 5.612 1.181 9.989l-.009 5.269c-.008 3.336.054 5.673.182 6.993.13 1.327.477 2.589 1.045 3.791L22.973 5.546l9.159 4.51L7.766 44.911C4.359 42.521 1.783 39.719 0 36.509" style="fill:#fff;fill-rule:nonzero" transform="translate(85.834 148.188) scale(1.21808)"/>
      <path d="m0-30.017 5.535-1.747c1.657 2.668 2.904 4.505 3.742 5.51 1.329 1.597 2.817 2.752 4.458 3.459 1.115.481 2.353.7 3.711.657.804-.033 1.369-.11 1.697-.23l3.985 6.978-43.053 17.137-5.717-9.933 31.63-11.366L0-30.017Z" style="fill:#fff;fill-rule:nonzero" transform="translate(308.439 159.695) scale(1.21808)"/>
      <path d="m0 .485 16.834-9.099-23.466-2.463L0 .485Zm1.746 17.997-3.072-5.346-9.531 5.565-5.421-9.417 9.721-5.254-10.788-18.782 7.594-3.464 32.829 4.661 5.326 9.33-23.3 13.606L8.1 14.604l-6.354 3.878Z" style="fill:#fff;fill-rule:nonzero" transform="translate(327.566 191.46) scale(1.21808)"/>
      <path d="m0 24.16-1.889 1.272c-.666-2.003-1.168-3.399-1.5-4.17-.531-1.235-1.107-2.137-1.724-2.7-.421-.383-.878-.564-1.367-.541-.289.02-.49.075-.604.168l-1.786-5.592L6.636-1.272l2.182 8.507-11.253 8.85L0 24.16Z" style="fill:#fff;fill-rule:nonzero" transform="translate(38.753 287.033) scale(1.21808)"/>
      <path d="M0 26.513c-1.477-.004-3.469-1.641-5.993-4.912-2.191-2.831-3.677-4.57-4.455-5.219-1.197-.973-2.167-.92-2.904.141-.589.85-.914 2.063-.98 3.63-.065 1.542.191 3.233.763 5.075.772 2.489 1.593 3.786 2.476 3.92.514.076 1.181-.318 2.012-1.196l2.358 7.885c-1.254 1.188-2.395 1.623-3.442 1.333-1.957-.54-3.748-3.394-5.443-8.701-1.381-4.319-2.138-8.383-2.247-12.209-.115-3.974.468-7.064 1.787-9.213 1.046-1.704 2.319-2.169 3.81-1.353.994.53 2.326 1.883 3.989 4.055l1.979 2.578c1.239 1.613 2.11 2.687 2.613 3.222.504.535 1.015.878 1.534 1.029L-8.184-5.905l3.092-5.042 9.174 35.761C2.743 26.145 1.387 26.7 0 26.513" style="fill:#fff;fill-rule:nonzero" transform="translate(37.692 238.996) scale(1.21808)"/>
      <path d="m0 15.242-3.252.944c-1.582-1.468-2.766-2.5-3.53-3.074-1.231-.926-2.511-1.616-3.835-2.062a9.285 9.285 0 0 0-2.895-.477c-.606 0-1.023.031-1.251.095l-4.693-4.427L6.826-.944l4.593 5.498-17.19 4.838L0 15.242Z" style="fill:#fff;fill-rule:nonzero" transform="translate(110.662 381.185) scale(1.21808)"/>
      <path d="M0 6.138C1.201 5.037.909 3.45-.912 1.342-2.78-.82-4.962-2.045-7.447-2.293c-2.514-.25-5.589.049-9.222.908-3.84.908-6.357 1.937-7.524 3.075-1.163 1.136-.622 2.797 1.575 4.945 2.142 2.094 4.412 3.23 6.834 3.445 2.39.213 5.37-.132 8.937-1.028C-3.47 8.204-1.195 7.236 0 6.138m-34.124-9.629c.874-2.82 4.127-4.883 9.698-6.136 5.502-1.238 10.646-1.094 15.374.384C-4.462-7.808-.143-4.607 3.835.184c3.769 4.539 5.045 7.9 3.987 10.233-1.043 2.3-3.846 4.032-8.458 5.235-4.663 1.214-9.111 1.351-13.393.38-4.399-.997-8.933-3.66-13.701-8.151-5.043-4.751-7.253-8.6-6.394-11.372" style="fill:#fff;fill-rule:nonzero" transform="translate(94.225 354.489) scale(1.21808)"/>
      <path d="m0-11.122 3.173-2.652c1.628-.739 2.817-1.297 3.56-1.671a38.949 38.949 0 0 0 3.42-1.945 29.78 29.78 0 0 0 2.148-1.511c.403-.313.668-.528.8-.65l3.957-1.751-27.69 27.669-9.438 3.813L6.477-13.946 0-11.122Z" style="fill:#fff;fill-rule:nonzero" transform="translate(130.898 76.413) scale(1.21808)"/>
      <path d="M0 9.769c.626.443 2.037.226 4.22-.678 2.204-.912 4.128-2.081 5.691-3.449C11.4 4.34 12.327 3.053 12.715 1.82c.368-1.167.105-1.764-.734-1.864-.801-.094-2.015.215-3.663.922-1.636.701-3.09 1.533-4.406 2.525C2.545 4.435 1.429 5.601.549 6.958-.377 8.387-.59 9.351 0 9.769M6.903-1.036c.507.057 1.424-.198 2.745-.77 1.343-.583 2.459-1.21 3.324-1.866.841-.638 1.335-1.193 1.495-1.661.165-.485-.04-.703-.595-.675-.539.028-1.378.295-2.525.799-1.129.497-2.085 1.018-2.889 1.577-.823.573-1.412 1.134-1.766 1.694-.341.54-.279.847.211.902M-3.236 6.087a41.344 41.344 0 0 1 5.522-3.873C1.114 2.295.581 2.089.639 1.617c.056-.448.294-.929.702-1.444.853-1.074 2.264-2.245 4.211-3.531 1.85-1.221 4.028-2.379 6.625-3.528 2.627-1.162 4.623-1.847 6.028-2.053 1.502-.22 2.279.012 2.251.755-.013.357-.269.863-.784 1.529-.541.701-1.701 1.628-3.503 2.781 1.714-.348 3.038-.372 3.958-.04.995.359 1.539 1.079 1.57 2.222.054 1.957-1.556 4.592-5.129 7.919-4.033 3.755-9.611 7.169-16.18 9.806-6.375 2.56-9.987 2.895-10.867 1.253-.766-1.423.18-3.645 2.479-6.454 1.355-1.655 2.943-3.225 4.764-4.745" style="fill:#fff;fill-rule:nonzero" transform="translate(156.424 50.148) scale(1.21808)"/>
      <path d="m0-5.408 2.072-4.459-12.245-.238L0-5.408Zm12.472 8.805L7.524 1.153l.084 6.554-11.396-4.964 2.579-5.548-19.338-8.765 4.557-1.545 17.947 1.639 5.438 2.612.088 6.911L11.746.015l.726 3.382Z" style="fill:#fff;fill-rule:nonzero" transform="translate(273.56 70.378) scale(1.21808)"/>
      <path d="M0-35.651c-.971.041-1.716.82-2.236 2.393-.536 1.619-.624 3.447-.236 5.476.402 2.101 1.199 4.024 2.388 5.72 1.338 1.908 2.52 2.686 3.514 2.329.965-.349 1.61-1.464 1.944-3.284.26-1.416.27-2.914.043-4.496-.319-2.274-1.132-4.271-2.44-6.058C1.931-35 .947-35.69 0-35.651m10.385 27.35c.393.559.858.818 1.389.779.85-.125 1.348-1.365 1.502-3.635.215-3.185-.421-6.386-1.85-9.671-.765-1.745-1.923-3.798-3.466-6.158.449 1.741.724 3.473.822 5.203.1 1.795.029 3.668-.225 5.637-.591 4.567-1.881 7.625-3.914 8.836-2.17 1.292-4.551.135-6.994-3.49-2.386-3.539-3.963-8.125-4.714-13.443-.688-4.884-.072-9.475 1.627-13.624 1.596-3.9 3.597-5.177 6.07-4.231 1.859.718 3.919 2.609 6.257 5.731 1.392 1.857 2.519 3.482 3.379 4.876a44.99 44.99 0 0 1 3.866 7.836c.904 2.416 1.631 5.031 2.177 7.887.577 3.018.842 6.212.765 9.641-.121 5.445-.856 9.373-2.26 11.376-1.501 2.144-3.422 1.897-5.672-.838l1.241-12.712Z" style="fill:#fff;fill-rule:nonzero" transform="translate(379.237 296.746) scale(1.21808)"/>
      <path d="m0-7.854 3.007 1.998C.959-4.244-.386-3.119-1.07-2.45-2.139-1.407-2.758-.463-2.943.382c-.124.564.006 1.085.379 1.564.226.276.427.454.606.535l-4.621 3.293L-39.736-6.28l6.757-7.348L-7.934-1.674 0-7.854Z" style="fill:#fff;fill-rule:nonzero" transform="translate(373.279 357.321) scale(1.21808)"/>
      <path d="M0-5.313c-2.138.4-3.717 1.098-4.696 2.073-.937.933-.936 1.743-.039 2.425C-3.873-.16-2.397.276-.345.504 1.844.747 3.75.672 5.432.291c1.663-.378 2.932-.936 3.831-1.688.741-.62 1.067-1.23.966-1.835-.14-.936-1.404-1.636-3.886-2.088A17.384 17.384 0 0 0 0-5.313m14.358 7.13c.449.051 1.064.011 1.844-.12 1.272-.225 2.348-.668 3.25-1.337 1.377-1.022 1.442-1.923.11-2.719-.776-.456-2.24-.945-4.472-1.479.336.619.336 1.25.013 1.896-.316.63-.922 1.296-1.814 2-1.86 1.469-4.25 2.544-7.26 3.274-3.065.743-6.242 1.002-9.655.755-3.639-.264-6.554-1.02-8.676-2.335-2.313-1.434-2.399-3.475.013-6.149 2.771-3.071 7.625-4.94 14.079-5.414 4.753-.342 9.583.11 14.258 1.246 2.516.611 4.37 1.147 5.636 1.621 2.134.8 3.491 1.661 4.153 2.582.532.754.611 1.577.266 2.468-.333.859-1.191 1.772-2.558 2.743a20.69 20.69 0 0 1-6.218 3.018c-2.271.669-4.528.973-6.834.905l3.865-2.955Z" style="fill:#fff;fill-rule:nonzero" transform="translate(317.958 376.832) scale(1.21808)"/>
    </g>
  </g>
  <path d="M91.592 125.448c-18.046 0-25.874 27.902-29.092 45.659-1.788 9.867.737 21.042 6.234 29.428 2.953 4.504 8.099 8.207 11.655 12.402 3.556 4.195 6.813 9.162 7.273 12.213.67 4.44-.144 28.965-.144 31.457 0 4.985-3.447 37.397-4.142 47.477-.694 10.08-3.571 47.477-3.571 47.477s-4.872 36.549 2.857 44.278c4.209 4.21 13.65 4.21 17.86 0 7.729-7.728 2.857-44.278 2.857-44.278s-2.877-37.397-3.572-47.477c-.694-10.08-4.143-42.491-4.143-47.477 0-2.492-.812-27.017-.143-31.457.46-3.05 3.718-8.018 7.274-12.213 3.556-4.195 8.701-7.898 11.653-12.402 5.497-8.386 8.024-19.561 6.236-29.428-3.218-17.757-11.046-45.659-29.092-45.659Z" style="fill:#fff" transform="matrix(2.2283 0 0 2.13312 513.363 51.77)"/>
  <path d="M91.592 128.016c-3.85 0-7.058 1.426-10.02 4.006-2.962 2.58-5.584 6.35-7.792 10.751-4.417 8.8-7.169 20.044-8.755 28.795-1.651 9.115.735 19.75 5.857 27.564 2.556 3.899 7.601 7.59 11.465 12.149 1.851 2.183 3.621 4.559 5.028 6.854 1.407 2.296 2.493 4.43 2.825 6.635.231 1.53.271 3.807.289 6.804.019 2.998-.021 6.572-.081 10.082-.12 7.019-.323 13.987-.323 14.954 0 3.085-.873 12.08-1.822 22.071-.949 9.99-1.985 20.645-2.325 25.583-.698 10.13-3.574 47.497-3.574 47.497a2.279 2.279 0 0 1-.015.142c-.007.047-1.2 9.03-1.447 18.966-.124 4.968-.003 10.155.595 14.439.598 4.284 1.858 7.599 2.98 8.72 1.427 1.426 4.231 2.405 7.116 2.405 2.884 0 5.689-.978 7.115-2.405 1.122-1.122 2.382-4.437 2.98-8.72.598-4.284.719-9.471.595-14.439-.247-9.936-1.447-18.966-1.447-18.966a3.417 3.417 0 0 1-.015-.142c-.004-.048-2.876-37.367-3.574-47.497-.34-4.937-1.377-15.592-2.326-25.583-.95-9.991-1.822-18.986-1.822-22.071 0-.967-.203-7.935-.322-14.954-.06-3.51-.1-7.084-.081-10.082.018-2.997.058-5.274.289-6.804.332-2.205 1.418-4.339 2.825-6.635 1.407-2.295 3.177-4.67 5.028-6.854 3.864-4.559 8.908-8.249 11.464-12.149 5.122-7.814 7.509-18.45 5.858-27.564-1.586-8.751-4.338-19.995-8.755-28.795-2.208-4.401-4.83-8.171-7.792-10.751-2.962-2.58-6.17-4.006-10.02-4.006h-.001Z" style="fill:#fff;stroke:#eeeeec;stroke-width:.08px;stroke-linecap:square;stroke-linejoin:round;stroke-miterlimit:4" transform="matrix(2.2283 0 0 2.13312 513.363 51.77)"/>
</svg>
